<?xml version="1.0" encoding="UTF-8"?>
<svg width="20px" height="20px" viewBox="0 0 20 20" version="1.1" xmlns="http://www.w3.org/2000/svg" xmlns:xlink="http://www.w3.org/1999/xlink">
    <!-- Generator: Sketch 52 (66869) - http://www.bohemiancoding.com/sketch -->
    <title>twotone-directions_car-24px</title>
    <desc>Created with Sketch.</desc>
    <g id="Page-1" stroke="none" stroke-width="1" fill="none" fill-rule="evenodd">
        <g id="Desktop-Copy-2" transform="translate(-297.000000, -156.000000)">
            <g id="Group-3-Copy-3" transform="translate(279.000000, 144.000000)">
                <g id="twotone-directions_car-24px" transform="translate(16.000000, 10.000000)">
                    <polygon id="Path" points="0 0 24 0 24 24 0 24"></polygon>
                    <path d="M10,21 L14,21 L14,17 L21,17 L21,4.5638852 C21,3.90203328 20.9610784,3.70048072 20.8510541,3.49475316 C20.7699468,3.3430957 20.6569043,3.2300532 20.5052468,3.1489459 C20.2995193,3.03892159 20.0979667,3 19.4361148,3 L4.5638852,3 C3.90203328,3 3.70048072,3.03892159 3.49475316,3.1489459 C3.3430957,3.2300532 3.2300532,3.3430957 3.1489459,3.49475316 C3.03892159,3.70048072 3,3.90203328 3,4.5638852 L3,21 L7,21 L7,17 L10,17 L10,21 Z" id="Combined-Shape" stroke="#000000" stroke-width="2" fill="#B2B2B2"></path>
                    <rect id="Rectangle" fill="#000000" x="6" y="7" width="12" height="2"></rect>
                    <rect id="Rectangle-Copy" fill="#000000" x="6" y="11" width="7" height="2"></rect>
                </g>
            </g>
        </g>
    </g>
</svg>