<?xml version="1.0" encoding="UTF-8"?>
<svg width="18px" height="16px" viewBox="0 0 18 16" version="1.1" xmlns="http://www.w3.org/2000/svg" xmlns:xlink="http://www.w3.org/1999/xlink">
    <!-- Generator: Sketch 52 (66869) - http://www.bohemiancoding.com/sketch -->
    <title>twotone-directions_car-24px</title>
    <desc>Created with Sketch.</desc>
    <g id="Page-1" stroke="none" stroke-width="1" fill="none" fill-rule="evenodd">
        <g id="Desktop-Copy-2" transform="translate(-428.000000, -158.000000)">
            <g id="Group-3-Copy-4" transform="translate(409.000000, 144.000000)">
                <g id="twotone-directions_car-24px" transform="translate(16.000000, 10.000000)">
                    <polygon id="Path" points="0 0 24 0 24 24 0 24"></polygon>
                    <g id="twotone-store_mall_directory-24px">
                        <polygon id="Path" points="0 0 24 0 24 24 0 24"></polygon>
                        <polygon id="Path" fill="#000000" opacity="0.3" points="5.64 9 5.04 12 18.96 12 18.36 9"></polygon>
                        <path d="M4,7 L3,12 L3,14 L4,14 L4,20 L14,20 L14,14 L18,14 L18,20 L20,20 L20,14 L21,14 L21,12 L20,7 L4,7 Z M12,18 L6,18 L6,14 L12,14 L12,18 Z M5.04,12 L5.64,9 L18.36,9 L18.96,12 L5.04,12 Z M4,4 L20,4 L20,6 L4,6 L4,4 Z" id="Shape" fill="#000000" fill-rule="nonzero"></path>
                    </g>
                </g>
            </g>
        </g>
    </g>
</svg>