<?xml version="1.0" encoding="UTF-8"?>
<svg width="18px" height="16px" viewBox="0 0 18 16" version="1.1" xmlns="http://www.w3.org/2000/svg" xmlns:xlink="http://www.w3.org/1999/xlink">
    <!-- Generator: Sketch 52 (66869) - http://www.bohemiancoding.com/sketch -->
    <title>twotone-directions_car-24px</title>
    <desc>Created with Sketch.</desc>
    <g id="Page-1" stroke="none" stroke-width="1" fill="none" fill-rule="evenodd">
        <g id="Desktop-Copy-2" transform="translate(-59.000000, -211.000000)">
            <g id="Group-3" transform="translate(40.000000, 196.000000)">
                <g id="twotone-directions_car-24px" transform="translate(16.000000, 10.000000)">
                    <polygon id="Path" points="0 0 24 0 24 24 0 24"></polygon>
                    <path d="M5,17 L19,17 L19,12 L5,12 L5,17 Z M16.5,13 C17.33,13 18,13.67 18,14.5 C18,15.33 17.33,16 16.5,16 C15.67,16 15,15.33 15,14.5 C15,13.67 15.67,13 16.5,13 Z M7.5,13 C8.33,13 9,13.67 9,14.5 C9,15.33 8.33,16 7.5,16 C6.67,16 6,15.33 6,14.5 C6,13.67 6.67,13 7.5,13 Z" id="Shape" fill="#000000" fill-rule="nonzero" opacity="0.3"></path>
                    <path d="M18.92,6.01 C18.72,5.42 18.16,5 17.5,5 L6.5,5 C5.84,5 5.29,5.42 5.08,6.01 L3,12 L3,20 C3,20.55 3.45,21 4,21 L5,21 C5.55,21 6,20.55 6,20 L6,19 L18,19 L18,20 C18,20.55 18.45,21 19,21 L20,21 C20.55,21 21,20.55 21,20 L21,12 L18.92,6.01 Z M6.85,7 L17.14,7 L18.22,10.11 L5.77,10.11 L6.85,7 Z M19,17 L5,17 L5,12 L19,12 L19,17 Z" id="Shape" fill="#000000" fill-rule="nonzero"></path>
                    <circle id="Oval" fill="#000000" cx="7.5" cy="14.5" r="1.5"></circle>
                    <circle id="Oval" fill="#000000" cx="16.5" cy="14.5" r="1.5"></circle>
                </g>
            </g>
        </g>
    </g>
</svg>