<?xml version="1.0" encoding="UTF-8"?>
<svg width="24px" height="24px" viewBox="0 0 24 24" version="1.1" xmlns="http://www.w3.org/2000/svg" xmlns:xlink="http://www.w3.org/1999/xlink">
    <!-- Generator: Sketch 52 (66869) - http://www.bohemiancoding.com/sketch -->
    <title>Group 4</title>
    <desc>Created with Sketch.</desc>
    <defs>
        <path d="M4,3.45256249 L7.33918447,0.11337802 C7.49035517,-0.0377926734 7.73545129,-0.0377926734 7.88662198,0.11337802 C8.03779267,0.264548714 8.03779267,0.509644835 7.88662198,0.660815528 L4.54743751,4 L7.88662198,7.33918447 C8.03779267,7.49035517 8.03779267,7.73545129 7.88662198,7.88662198 C7.73545129,8.03779267 7.49035517,8.03779267 7.33918447,7.88662198 L4,4.54743751 L0.660815528,7.88662198 C0.509644835,8.03779267 0.264548714,8.03779267 0.11337802,7.88662198 C-0.0377926734,7.73545129 -0.0377926734,7.49035517 0.11337802,7.33918447 L3.45256249,4 L0.11337802,0.660815528 C-0.0377926734,0.509644835 -0.0377926734,0.264548714 0.11337802,0.11337802 C0.264548714,-0.0377926734 0.509644835,-0.0377926734 0.660815528,0.11337802 L4,3.45256249 Z" id="path-1"></path>
    </defs>
    <g id="Page-1" stroke="none" stroke-width="1" fill="none" fill-rule="evenodd">
        <g id="Desktop-Copy-3" transform="translate(-467.000000, -206.000000)">
            <g id="Group-3-Copy-6" transform="translate(337.000000, 196.000000)">
                <g id="Group-4" transform="translate(130.000000, 10.000000)">
                    <path d="M12,0 L12,0 C18.627417,-1.21743675e-15 24,5.372583 24,12 L24,12 C24,18.627417 18.627417,24 12,24 L12,24 C5.372583,24 8.11624501e-16,18.627417 0,12 L0,12 C-8.11624501e-16,5.372583 5.372583,1.21743675e-15 12,0 Z" id="Rectangle" fill="#FFFFFF"></path>
                    <g id="Icons/Other/Close" transform="translate(8.000000, 8.000000)">
                        <mask id="mask-2" fill="white">
                            <use xlink:href="#path-1"></use>
                        </mask>
                        <use id="Combined-Shape" stroke="#000000" stroke-width="0.5" fill="#000000" fill-rule="nonzero" xlink:href="#path-1"></use>
                    </g>
                </g>
            </g>
        </g>
    </g>
</svg>